<?xml version="1.0"?>
<!-- Generated by SVGo -->
<svg width="540" height="540"
     xmlns="http://www.w3.org/2000/svg"
     xmlns:xlink="http://www.w3.org/1999/xlink">
<rect x="0" y="0" width="540" height="540" style="fill:none;stroke:black;stroke-width:4"/>
<circle cx="89" cy="424" r="4" style="fill:blue"/>
<circle cx="106" cy="363" r="4" style="fill:blue"/>
<circle cx="128" cy="406" r="4" style="fill:blue"/>
<circle cx="123" cy="396" r="4" style="fill:blue"/>
<circle cx="101" cy="403" r="4" style="fill:blue"/>
<circle cx="159" cy="400" r="4" style="fill:blue"/>
<circle cx="152" cy="407" r="4" style="fill:blue"/>
<circle cx="138" cy="447" r="4" style="fill:blue"/>
<circle cx="137" cy="410" r="4" style="fill:blue"/>
<circle cx="144" cy="459" r="4" style="fill:blue"/>
<circle cx="112" cy="373" r="4" style="fill:blue"/>
<circle cx="147" cy="445" r="4" style="fill:blue"/>
<circle cx="144" cy="436" r="4" style="fill:blue"/>
<circle cx="84" cy="474" r="4" style="fill:blue"/>
<circle cx="123" cy="409" r="4" style="fill:blue"/>
<circle cx="98" cy="423" r="4" style="fill:blue"/>
<circle cx="123" cy="457" r="4" style="fill:blue"/>
<circle cx="126" cy="464" r="4" style="fill:blue"/>
<circle cx="137" cy="412" r="4" style="fill:blue"/>
<circle cx="93" cy="441" r="4" style="fill:blue"/>
<circle cx="128" cy="377" r="4" style="fill:blue"/>
<circle cx="91" cy="402" r="4" style="fill:blue"/>
<circle cx="143" cy="457" r="4" style="fill:blue"/>
<circle cx="144" cy="428" r="4" style="fill:blue"/>
<circle cx="132" cy="432" r="4" style="fill:blue"/>
<circle cx="126" cy="423" r="4" style="fill:blue"/>
<circle cx="124" cy="411" r="4" style="fill:blue"/>
<circle cx="79" cy="400" r="4" style="fill:blue"/>
<circle cx="148" cy="422" r="4" style="fill:blue"/>
<circle cx="100" cy="449" r="4" style="fill:blue"/>
<circle cx="100" cy="404" r="4" style="fill:blue"/>
<circle cx="155" cy="430" r="4" style="fill:blue"/>
<circle cx="111" cy="422" r="4" style="fill:blue"/>
<circle cx="113" cy="416" r="4" style="fill:blue"/>
<circle cx="163" cy="427" r="4" style="fill:blue"/>
<circle cx="114" cy="390" r="4" style="fill:blue"/>
<circle cx="93" cy="433" r="4" style="fill:blue"/>
<circle cx="103" cy="468" r="4" style="fill:blue"/>
<circle cx="70" cy="439" r="4" style="fill:gray"/>
<circle cx="169" cy="418" r="4" style="fill:blue"/>
<circle cx="118" cy="425" r="4" style="fill:blue"/>
<circle cx="150" cy="446" r="4" style="fill:blue"/>
<circle cx="99" cy="418" r="4" style="fill:blue"/>
<circle cx="84" cy="479" r="4" style="fill:blue"/>
<circle cx="144" cy="414" r="4" style="fill:blue"/>
<circle cx="70" cy="405" r="4" style="fill:gray"/>
<circle cx="129" cy="445" r="4" style="fill:blue"/>
<circle cx="130" cy="406" r="4" style="fill:blue"/>
<circle cx="183" cy="411" r="4" style="fill:blue"/>
<circle cx="88" cy="475" r="4" style="fill:blue"/>
<circle cx="409" cy="292" r="4" style="fill:red"/>
<circle cx="420" cy="300" r="4" style="fill:red"/>
<circle cx="479" cy="234" r="4" style="fill:gray"/>
<circle cx="424" cy="270" r="4" style="fill:red"/>
<circle cx="420" cy="272" r="4" style="fill:red"/>
<circle cx="408" cy="325" r="4" style="fill:red"/>
<circle cx="408" cy="284" r="4" style="fill:red"/>
<circle cx="488" cy="307" r="4" style="fill:gray"/>
<circle cx="421" cy="286" r="4" style="fill:red"/>
<circle cx="439" cy="293" r="4" style="fill:red"/>
<circle cx="438" cy="261" r="4" style="fill:red"/>
<circle cx="391" cy="286" r="4" style="fill:red"/>
<circle cx="394" cy="267" r="4" style="fill:red"/>
<circle cx="368" cy="272" r="4" style="fill:red"/>
<circle cx="387" cy="238" r="4" style="fill:red"/>
<circle cx="390" cy="255" r="4" style="fill:red"/>
<circle cx="447" cy="279" r="4" style="fill:red"/>
<circle cx="435" cy="301" r="4" style="fill:red"/>
<circle cx="466" cy="270" r="4" style="fill:gray"/>
<circle cx="381" cy="275" r="4" style="fill:red"/>
<circle cx="380" cy="327" r="4" style="fill:red"/>
<circle cx="436" cy="288" r="4" style="fill:red"/>
<circle cx="398" cy="265" r="4" style="fill:red"/>
<circle cx="397" cy="221" r="4" style="fill:red"/>
<circle cx="430" cy="255" r="4" style="fill:red"/>
<circle cx="389" cy="326" r="4" style="fill:red"/>
<circle cx="424" cy="331" r="4" style="fill:red"/>
<circle cx="425" cy="265" r="4" style="fill:red"/>
<circle cx="431" cy="253" r="4" style="fill:red"/>
<circle cx="445" cy="269" r="4" style="fill:red"/>
<circle cx="396" cy="287" r="4" style="fill:red"/>
<circle cx="376" cy="308" r="4" style="fill:red"/>
<circle cx="404" cy="308" r="4" style="fill:red"/>
<circle cx="385" cy="308" r="4" style="fill:red"/>
<circle cx="361" cy="270" r="4" style="fill:red"/>
<circle cx="422" cy="265" r="4" style="fill:red"/>
<circle cx="457" cy="288" r="4" style="fill:red"/>
<circle cx="438" cy="231" r="4" style="fill:gray"/>
<circle cx="436" cy="256" r="4" style="fill:red"/>
<circle cx="389" cy="225" r="4" style="fill:red"/>
<circle cx="391" cy="258" r="4" style="fill:red"/>
<circle cx="453" cy="302" r="4" style="fill:red"/>
<circle cx="387" cy="265" r="4" style="fill:red"/>
<circle cx="419" cy="253" r="4" style="fill:red"/>
<circle cx="440" cy="295" r="4" style="fill:red"/>
<circle cx="427" cy="265" r="4" style="fill:red"/>
<circle cx="407" cy="246" r="4" style="fill:red"/>
<circle cx="406" cy="272" r="4" style="fill:red"/>
<circle cx="446" cy="268" r="4" style="fill:red"/>
<circle cx="416" cy="261" r="4" style="fill:red"/>
<circle cx="260" cy="204" r="4" style="fill:forestgreen"/>
<circle cx="353" cy="195" r="4" style="fill:gray"/>
<circle cx="277" cy="230" r="4" style="fill:forestgreen"/>
<circle cx="310" cy="225" r="4" style="fill:forestgreen"/>
<circle cx="266" cy="202" r="4" style="fill:forestgreen"/>
<circle cx="271" cy="257" r="4" style="fill:forestgreen"/>
<circle cx="314" cy="208" r="4" style="fill:forestgreen"/>
<circle cx="257" cy="210" r="4" style="fill:forestgreen"/>
<circle cx="260" cy="216" r="4" style="fill:forestgreen"/>
<circle cx="247" cy="250" r="4" style="fill:forestgreen"/>
<circle cx="215" cy="215" r="4" style="fill:gray"/>
<circle cx="244" cy="224" r="4" style="fill:forestgreen"/>
<circle cx="269" cy="240" r="4" style="fill:forestgreen"/>
<circle cx="263" cy="208" r="4" style="fill:forestgreen"/>
<circle cx="261" cy="210" r="4" style="fill:forestgreen"/>
<circle cx="254" cy="247" r="4" style="fill:forestgreen"/>
<circle cx="259" cy="240" r="4" style="fill:forestgreen"/>
<circle cx="277" cy="218" r="4" style="fill:forestgreen"/>
<circle cx="252" cy="218" r="4" style="fill:forestgreen"/>
<circle cx="269" cy="250" r="4" style="fill:forestgreen"/>
<circle cx="268" cy="227" r="4" style="fill:forestgreen"/>
<circle cx="290" cy="246" r="4" style="fill:forestgreen"/>
<circle cx="268" cy="178" r="4" style="fill:forestgreen"/>
<circle cx="304" cy="222" r="4" style="fill:forestgreen"/>
<circle cx="251" cy="199" r="4" style="fill:forestgreen"/>
<circle cx="256" cy="185" r="4" style="fill:forestgreen"/>
<circle cx="259" cy="190" r="4" style="fill:forestgreen"/>
<circle cx="258" cy="224" r="4" style="fill:forestgreen"/>
<circle cx="271" cy="239" r="4" style="fill:forestgreen"/>
<circle cx="302" cy="220" r="4" style="fill:forestgreen"/>
<circle cx="310" cy="230" r="4" style="fill:forestgreen"/>
<circle cx="257" cy="218" r="4" style="fill:forestgreen"/>
<circle cx="252" cy="191" r="4" style="fill:forestgreen"/>
<circle cx="271" cy="214" r="4" style="fill:forestgreen"/>
<circle cx="291" cy="231" r="4" style="fill:forestgreen"/>
<circle cx="282" cy="220" r="4" style="fill:forestgreen"/>
<circle cx="263" cy="177" r="4" style="fill:forestgreen"/>
<circle cx="275" cy="257" r="4" style="fill:forestgreen"/>
<circle cx="260" cy="232" r="4" style="fill:forestgreen"/>
<circle cx="301" cy="194" r="4" style="fill:forestgreen"/>
<circle cx="286" cy="230" r="4" style="fill:forestgreen"/>
<circle cx="324" cy="263" r="4" style="fill:gray"/>
<circle cx="214" cy="203" r="4" style="fill:gray"/>
<circle cx="282" cy="224" r="4" style="fill:forestgreen"/>
<circle cx="274" cy="201" r="4" style="fill:forestgreen"/>
<circle cx="285" cy="190" r="4" style="fill:forestgreen"/>
<circle cx="297" cy="182" r="4" style="fill:forestgreen"/>
<circle cx="268" cy="269" r="4" style="fill:forestgreen"/>
<circle cx="286" cy="223" r="4" style="fill:forestgreen"/>
<circle cx="277" cy="226" r="4" style="fill:forestgreen"/>
</svg>
