<?xml version="1.0"?>
<!-- Generated by SVGo -->
<svg width="540" height="540"
     xmlns="http://www.w3.org/2000/svg"
     xmlns:xlink="http://www.w3.org/1999/xlink">
<rect x="0" y="0" width="540" height="540" style="fill:none;stroke:black;stroke-width:4"/>
<circle cx="170" cy="117" r="4" style="fill:forestgreen"/>
<circle cx="281" cy="74" r="4" style="fill:forestgreen"/>
<circle cx="291" cy="69" r="4" style="fill:forestgreen"/>
<circle cx="254" cy="70" r="4" style="fill:forestgreen"/>
<circle cx="433" cy="153" r="4" style="fill:blue"/>
<circle cx="407" cy="114" r="4" style="fill:blue"/>
<circle cx="395" cy="100" r="4" style="fill:blue"/>
<circle cx="293" cy="76" r="4" style="fill:forestgreen"/>
<circle cx="470" cy="207" r="4" style="fill:blue"/>
<circle cx="330" cy="74" r="4" style="fill:forestgreen"/>
<circle cx="193" cy="90" r="4" style="fill:forestgreen"/>
<circle cx="453" cy="175" r="4" style="fill:blue"/>
<circle cx="443" cy="145" r="4" style="fill:blue"/>
<circle cx="392" cy="111" r="4" style="fill:blue"/>
<circle cx="353" cy="80" r="4" style="fill:blue"/>
<circle cx="316" cy="69" r="4" style="fill:forestgreen"/>
<circle cx="434" cy="144" r="4" style="fill:blue"/>
<circle cx="155" cy="102" r="4" style="fill:forestgreen"/>
<circle cx="162" cy="98" r="4" style="fill:forestgreen"/>
<circle cx="345" cy="109" r="4" style="fill:blue"/>
<circle cx="310" cy="63" r="4" style="fill:forestgreen"/>
<circle cx="458" cy="249" r="4" style="fill:blue"/>
<circle cx="205" cy="102" r="4" style="fill:forestgreen"/>
<circle cx="225" cy="70" r="4" style="fill:forestgreen"/>
<circle cx="483" cy="254" r="4" style="fill:blue"/>
<circle cx="389" cy="118" r="4" style="fill:blue"/>
<circle cx="142" cy="113" r="4" style="fill:forestgreen"/>
<circle cx="167" cy="110" r="4" style="fill:forestgreen"/>
<circle cx="372" cy="94" r="4" style="fill:blue"/>
<circle cx="387" cy="109" r="4" style="fill:blue"/>
<circle cx="331" cy="94" r="4" style="fill:forestgreen"/>
<circle cx="294" cy="61" r="4" style="fill:forestgreen"/>
<circle cx="437" cy="217" r="4" style="fill:blue"/>
<circle cx="255" cy="84" r="4" style="fill:forestgreen"/>
<circle cx="435" cy="178" r="4" style="fill:blue"/>
<circle cx="259" cy="67" r="4" style="fill:forestgreen"/>
<circle cx="212" cy="91" r="4" style="fill:forestgreen"/>
<circle cx="269" cy="47" r="4" style="fill:forestgreen"/>
<circle cx="222" cy="68" r="4" style="fill:forestgreen"/>
<circle cx="446" cy="163" r="4" style="fill:blue"/>
<circle cx="395" cy="101" r="4" style="fill:blue"/>
<circle cx="404" cy="120" r="4" style="fill:blue"/>
<circle cx="417" cy="117" r="4" style="fill:blue"/>
<circle cx="468" cy="244" r="4" style="fill:blue"/>
<circle cx="457" cy="209" r="4" style="fill:blue"/>
<circle cx="425" cy="159" r="4" style="fill:blue"/>
<circle cx="168" cy="109" r="4" style="fill:forestgreen"/>
<circle cx="214" cy="68" r="4" style="fill:forestgreen"/>
<circle cx="354" cy="87" r="4" style="fill:blue"/>
<circle cx="447" cy="183" r="4" style="fill:blue"/>
<circle cx="406" cy="129" r="4" style="fill:blue"/>
<circle cx="212" cy="88" r="4" style="fill:forestgreen"/>
<circle cx="484" cy="235" r="4" style="fill:blue"/>
<circle cx="441" cy="176" r="4" style="fill:blue"/>
<circle cx="388" cy="101" r="4" style="fill:blue"/>
<circle cx="463" cy="248" r="4" style="fill:blue"/>
<circle cx="338" cy="76" r="4" style="fill:forestgreen"/>
<circle cx="216" cy="58" r="4" style="fill:forestgreen"/>
<circle cx="448" cy="162" r="4" style="fill:blue"/>
<circle cx="159" cy="102" r="4" style="fill:forestgreen"/>
<circle cx="359" cy="88" r="4" style="fill:blue"/>
<circle cx="362" cy="95" r="4" style="fill:blue"/>
<circle cx="328" cy="85" r="4" style="fill:forestgreen"/>
<circle cx="452" cy="133" r="4" style="fill:blue"/>
<circle cx="300" cy="81" r="4" style="fill:forestgreen"/>
<circle cx="395" cy="114" r="4" style="fill:blue"/>
<circle cx="454" cy="184" r="4" style="fill:blue"/>
<circle cx="233" cy="79" r="4" style="fill:forestgreen"/>
<circle cx="133" cy="127" r="4" style="fill:forestgreen"/>
<circle cx="406" cy="124" r="4" style="fill:blue"/>
<circle cx="454" cy="252" r="4" style="fill:blue"/>
<circle cx="450" cy="212" r="4" style="fill:blue"/>
<circle cx="458" cy="160" r="4" style="fill:blue"/>
<circle cx="304" cy="70" r="4" style="fill:forestgreen"/>
<circle cx="214" cy="79" r="4" style="fill:forestgreen"/>
<circle cx="247" cy="76" r="4" style="fill:forestgreen"/>
<circle cx="456" cy="240" r="4" style="fill:blue"/>
<circle cx="130" cy="120" r="4" style="fill:forestgreen"/>
<circle cx="452" cy="235" r="4" style="fill:blue"/>
<circle cx="412" cy="145" r="4" style="fill:blue"/>
<circle cx="280" cy="86" r="4" style="fill:forestgreen"/>
<circle cx="254" cy="70" r="4" style="fill:forestgreen"/>
<circle cx="456" cy="153" r="4" style="fill:blue"/>
<circle cx="376" cy="93" r="4" style="fill:blue"/>
<circle cx="385" cy="118" r="4" style="fill:blue"/>
<circle cx="193" cy="96" r="4" style="fill:forestgreen"/>
<circle cx="379" cy="94" r="4" style="fill:blue"/>
<circle cx="431" cy="148" r="4" style="fill:blue"/>
<circle cx="445" cy="149" r="4" style="fill:blue"/>
<circle cx="131" cy="104" r="4" style="fill:forestgreen"/>
<circle cx="356" cy="78" r="4" style="fill:blue"/>
<circle cx="463" cy="216" r="4" style="fill:blue"/>
<circle cx="238" cy="77" r="4" style="fill:forestgreen"/>
<circle cx="417" cy="152" r="4" style="fill:blue"/>
<circle cx="341" cy="84" r="4" style="fill:forestgreen"/>
<circle cx="137" cy="110" r="4" style="fill:forestgreen"/>
<circle cx="467" cy="236" r="4" style="fill:blue"/>
<circle cx="191" cy="88" r="4" style="fill:forestgreen"/>
<circle cx="388" cy="116" r="4" style="fill:blue"/>
<circle cx="208" cy="90" r="4" style="fill:forestgreen"/>
<circle cx="170" cy="109" r="4" style="fill:forestgreen"/>
<circle cx="417" cy="144" r="4" style="fill:blue"/>
<circle cx="437" cy="210" r="4" style="fill:blue"/>
<circle cx="448" cy="194" r="4" style="fill:blue"/>
<circle cx="237" cy="80" r="4" style="fill:forestgreen"/>
<circle cx="276" cy="73" r="4" style="fill:forestgreen"/>
<circle cx="462" cy="234" r="4" style="fill:blue"/>
<circle cx="471" cy="260" r="4" style="fill:blue"/>
<circle cx="212" cy="84" r="4" style="fill:forestgreen"/>
<circle cx="414" cy="144" r="4" style="fill:blue"/>
<circle cx="161" cy="84" r="4" style="fill:forestgreen"/>
<circle cx="204" cy="83" r="4" style="fill:forestgreen"/>
<circle cx="331" cy="85" r="4" style="fill:forestgreen"/>
<circle cx="479" cy="232" r="4" style="fill:blue"/>
<circle cx="145" cy="122" r="4" style="fill:forestgreen"/>
<circle cx="453" cy="230" r="4" style="fill:blue"/>
<circle cx="461" cy="191" r="4" style="fill:blue"/>
<circle cx="431" cy="192" r="4" style="fill:blue"/>
<circle cx="466" cy="228" r="4" style="fill:blue"/>
<circle cx="461" cy="220" r="4" style="fill:blue"/>
<circle cx="424" cy="159" r="4" style="fill:blue"/>
<circle cx="183" cy="88" r="4" style="fill:forestgreen"/>
<circle cx="451" cy="180" r="4" style="fill:blue"/>
<circle cx="150" cy="117" r="4" style="fill:forestgreen"/>
<circle cx="470" cy="227" r="4" style="fill:blue"/>
<circle cx="294" cy="109" r="4" style="fill:forestgreen"/>
<circle cx="437" cy="174" r="4" style="fill:blue"/>
<circle cx="306" cy="72" r="4" style="fill:forestgreen"/>
<circle cx="476" cy="255" r="4" style="fill:blue"/>
<circle cx="354" cy="103" r="4" style="fill:blue"/>
<circle cx="374" cy="88" r="4" style="fill:blue"/>
<circle cx="467" cy="254" r="4" style="fill:blue"/>
<circle cx="343" cy="65" r="4" style="fill:forestgreen"/>
<circle cx="425" cy="135" r="4" style="fill:blue"/>
<circle cx="341" cy="85" r="4" style="fill:forestgreen"/>
<circle cx="286" cy="62" r="4" style="fill:forestgreen"/>
<circle cx="384" cy="103" r="4" style="fill:blue"/>
<circle cx="310" cy="65" r="4" style="fill:forestgreen"/>
<circle cx="451" cy="236" r="4" style="fill:blue"/>
<circle cx="421" cy="190" r="4" style="fill:blue"/>
<circle cx="413" cy="136" r="4" style="fill:blue"/>
<circle cx="173" cy="92" r="4" style="fill:forestgreen"/>
<circle cx="382" cy="117" r="4" style="fill:blue"/>
<circle cx="257" cy="56" r="4" style="fill:forestgreen"/>
<circle cx="161" cy="92" r="4" style="fill:forestgreen"/>
<circle cx="145" cy="106" r="4" style="fill:forestgreen"/>
<circle cx="192" cy="75" r="4" style="fill:forestgreen"/>
<circle cx="378" cy="93" r="4" style="fill:blue"/>
<circle cx="304" cy="61" r="4" style="fill:forestgreen"/>
<circle cx="319" cy="77" r="4" style="fill:forestgreen"/>
<circle cx="369" cy="91" r="4" style="fill:blue"/>
<circle cx="357" cy="76" r="4" style="fill:blue"/>
<circle cx="205" cy="73" r="4" style="fill:forestgreen"/>
<circle cx="191" cy="94" r="4" style="fill:forestgreen"/>
<circle cx="436" cy="160" r="4" style="fill:blue"/>
<circle cx="177" cy="100" r="4" style="fill:forestgreen"/>
<circle cx="196" cy="111" r="4" style="fill:forestgreen"/>
<circle cx="444" cy="189" r="4" style="fill:blue"/>
<circle cx="137" cy="128" r="4" style="fill:forestgreen"/>
<circle cx="196" cy="90" r="4" style="fill:forestgreen"/>
<circle cx="403" cy="133" r="4" style="fill:blue"/>
<circle cx="379" cy="124" r="4" style="fill:blue"/>
<circle cx="133" cy="125" r="4" style="fill:forestgreen"/>
<circle cx="304" cy="94" r="4" style="fill:forestgreen"/>
<circle cx="395" cy="123" r="4" style="fill:blue"/>
<circle cx="459" cy="172" r="4" style="fill:blue"/>
<circle cx="457" cy="206" r="4" style="fill:blue"/>
<circle cx="261" cy="81" r="4" style="fill:forestgreen"/>
<circle cx="466" cy="208" r="4" style="fill:blue"/>
<circle cx="269" cy="71" r="4" style="fill:forestgreen"/>
<circle cx="472" cy="256" r="4" style="fill:blue"/>
<circle cx="378" cy="109" r="4" style="fill:blue"/>
<circle cx="413" cy="126" r="4" style="fill:blue"/>
<circle cx="344" cy="94" r="4" style="fill:blue"/>
<circle cx="292" cy="78" r="4" style="fill:forestgreen"/>
<circle cx="356" cy="98" r="4" style="fill:blue"/>
<circle cx="409" cy="171" r="4" style="fill:blue"/>
<circle cx="154" cy="101" r="4" style="fill:forestgreen"/>
<circle cx="231" cy="79" r="4" style="fill:forestgreen"/>
<circle cx="371" cy="116" r="4" style="fill:blue"/>
<circle cx="319" cy="78" r="4" style="fill:forestgreen"/>
<circle cx="359" cy="77" r="4" style="fill:blue"/>
<circle cx="189" cy="96" r="4" style="fill:forestgreen"/>
<circle cx="461" cy="216" r="4" style="fill:blue"/>
<circle cx="457" cy="182" r="4" style="fill:blue"/>
<circle cx="187" cy="76" r="4" style="fill:forestgreen"/>
<circle cx="311" cy="71" r="4" style="fill:forestgreen"/>
<circle cx="393" cy="118" r="4" style="fill:blue"/>
<circle cx="175" cy="99" r="4" style="fill:forestgreen"/>
<circle cx="457" cy="206" r="4" style="fill:blue"/>
<circle cx="452" cy="185" r="4" style="fill:blue"/>
<circle cx="169" cy="111" r="4" style="fill:forestgreen"/>
<circle cx="387" cy="114" r="4" style="fill:blue"/>
<circle cx="432" cy="213" r="4" style="fill:blue"/>
<circle cx="297" cy="65" r="4" style="fill:forestgreen"/>
<circle cx="243" cy="68" r="4" style="fill:forestgreen"/>
<circle cx="408" cy="139" r="4" style="fill:blue"/>
<circle cx="450" cy="266" r="4" style="fill:blue"/>
<circle cx="235" cy="93" r="4" style="fill:forestgreen"/>
<circle cx="385" cy="85" r="4" style="fill:blue"/>
<circle cx="278" cy="252" r="4" style="fill:forestgreen"/>
<circle cx="288" cy="186" r="4" style="fill:forestgreen"/>
<circle cx="232" cy="215" r="4" style="fill:forestgreen"/>
<circle cx="339" cy="201" r="4" style="fill:blue"/>
<circle cx="271" cy="204" r="4" style="fill:forestgreen"/>
<circle cx="330" cy="236" r="4" style="fill:blue"/>
<circle cx="285" cy="236" r="4" style="fill:forestgreen"/>
<circle cx="292" cy="221" r="4" style="fill:forestgreen"/>
<circle cx="249" cy="230" r="4" style="fill:forestgreen"/>
<circle cx="261" cy="246" r="4" style="fill:forestgreen"/>
<circle cx="267" cy="217" r="4" style="fill:forestgreen"/>
<circle cx="267" cy="194" r="4" style="fill:forestgreen"/>
<circle cx="291" cy="240" r="4" style="fill:forestgreen"/>
<circle cx="244" cy="203" r="4" style="fill:forestgreen"/>
<circle cx="288" cy="268" r="4" style="fill:forestgreen"/>
<circle cx="275" cy="184" r="4" style="fill:forestgreen"/>
<circle cx="246" cy="223" r="4" style="fill:forestgreen"/>
<circle cx="251" cy="229" r="4" style="fill:forestgreen"/>
<circle cx="311" cy="198" r="4" style="fill:forestgreen"/>
<circle cx="279" cy="211" r="4" style="fill:forestgreen"/>
<circle cx="273" cy="251" r="4" style="fill:forestgreen"/>
<circle cx="299" cy="195" r="4" style="fill:forestgreen"/>
<circle cx="286" cy="197" r="4" style="fill:forestgreen"/>
<circle cx="282" cy="257" r="4" style="fill:forestgreen"/>
<circle cx="265" cy="227" r="4" style="fill:forestgreen"/>
<circle cx="292" cy="245" r="4" style="fill:forestgreen"/>
<circle cx="314" cy="208" r="4" style="fill:forestgreen"/>
<circle cx="251" cy="249" r="4" style="fill:forestgreen"/>
<circle cx="230" cy="228" r="4" style="fill:forestgreen"/>
<circle cx="306" cy="232" r="4" style="fill:forestgreen"/>
<circle cx="281" cy="222" r="4" style="fill:forestgreen"/>
<circle cx="275" cy="236" r="4" style="fill:forestgreen"/>
<circle cx="261" cy="245" r="4" style="fill:forestgreen"/>
<circle cx="234" cy="226" r="4" style="fill:forestgreen"/>
<circle cx="291" cy="226" r="4" style="fill:forestgreen"/>
<circle cx="289" cy="207" r="4" style="fill:forestgreen"/>
<circle cx="244" cy="235" r="4" style="fill:forestgreen"/>
<circle cx="271" cy="230" r="4" style="fill:forestgreen"/>
<circle cx="300" cy="209" r="4" style="fill:forestgreen"/>
<circle cx="268" cy="204" r="4" style="fill:forestgreen"/>
<circle cx="241" cy="176" r="4" style="fill:forestgreen"/>
<circle cx="255" cy="195" r="4" style="fill:forestgreen"/>
<circle cx="326" cy="259" r="4" style="fill:blue"/>
<circle cx="267" cy="223" r="4" style="fill:forestgreen"/>
<circle cx="311" cy="208" r="4" style="fill:forestgreen"/>
<circle cx="255" cy="238" r="4" style="fill:forestgreen"/>
<circle cx="232" cy="218" r="4" style="fill:forestgreen"/>
<circle cx="305" cy="225" r="4" style="fill:forestgreen"/>
<circle cx="263" cy="242" r="4" style="fill:forestgreen"/>
<circle cx="291" cy="175" r="4" style="fill:forestgreen"/>
<circle cx="105" cy="345" r="4" style="fill:red"/>
<circle cx="100" cy="341" r="4" style="fill:red"/>
<circle cx="132" cy="350" r="4" style="fill:red"/>
<circle cx="100" cy="415" r="4" style="fill:red"/>
<circle cx="149" cy="399" r="4" style="fill:red"/>
<circle cx="118" cy="357" r="4" style="fill:red"/>
<circle cx="84" cy="390" r="4" style="fill:red"/>
<circle cx="146" cy="417" r="4" style="fill:red"/>
<circle cx="116" cy="392" r="4" style="fill:red"/>
<circle cx="113" cy="417" r="4" style="fill:red"/>
<circle cx="103" cy="369" r="4" style="fill:red"/>
<circle cx="156" cy="378" r="4" style="fill:red"/>
<circle cx="111" cy="379" r="4" style="fill:red"/>
<circle cx="103" cy="379" r="4" style="fill:red"/>
<circle cx="106" cy="389" r="4" style="fill:red"/>
<circle cx="179" cy="327" r="4" style="fill:red"/>
<circle cx="87" cy="383" r="4" style="fill:red"/>
<circle cx="78" cy="344" r="4" style="fill:red"/>
<circle cx="140" cy="405" r="4" style="fill:red"/>
<circle cx="59" cy="353" r="4" style="fill:red"/>
<circle cx="82" cy="374" r="4" style="fill:red"/>
<circle cx="157" cy="341" r="4" style="fill:red"/>
<circle cx="179" cy="399" r="4" style="fill:red"/>
<circle cx="50" cy="367" r="4" style="fill:red"/>
<circle cx="119" cy="314" r="4" style="fill:red"/>
<circle cx="88" cy="344" r="4" style="fill:red"/>
<circle cx="91" cy="343" r="4" style="fill:red"/>
<circle cx="119" cy="332" r="4" style="fill:red"/>
<circle cx="73" cy="373" r="4" style="fill:red"/>
<circle cx="132" cy="429" r="4" style="fill:red"/>
<circle cx="172" cy="369" r="4" style="fill:red"/>
<circle cx="115" cy="424" r="4" style="fill:red"/>
<circle cx="102" cy="352" r="4" style="fill:red"/>
<circle cx="121" cy="343" r="4" style="fill:red"/>
<circle cx="83" cy="348" r="4" style="fill:red"/>
<circle cx="144" cy="352" r="4" style="fill:red"/>
<circle cx="150" cy="394" r="4" style="fill:red"/>
<circle cx="132" cy="379" r="4" style="fill:red"/>
<circle cx="162" cy="385" r="4" style="fill:red"/>
<circle cx="121" cy="354" r="4" style="fill:red"/>
<circle cx="87" cy="367" r="4" style="fill:red"/>
<circle cx="124" cy="360" r="4" style="fill:red"/>
<circle cx="115" cy="363" r="4" style="fill:red"/>
<circle cx="153" cy="359" r="4" style="fill:red"/>
<circle cx="133" cy="419" r="4" style="fill:red"/>
<circle cx="149" cy="380" r="4" style="fill:red"/>
<circle cx="89" cy="376" r="4" style="fill:red"/>
<circle cx="148" cy="359" r="4" style="fill:red"/>
<circle cx="117" cy="373" r="4" style="fill:red"/>
<circle cx="111" cy="382" r="4" style="fill:red"/>
</svg>
